<svg width="114" height="99" viewBox="0 0 114 99" fill="none" xmlns="http://www.w3.org/2000/svg">
<circle cx="36" cy="62.9999" r="36" fill="#FF9900"/>
<g clip-path="url(#clip0_406480_4300)">
<path fill-rule="evenodd" clip-rule="evenodd" d="M60.6784 9.29409C60.8399 9.01294 61.1977 8.91645 61.4776 9.07859L95.7072 28.9031C95.9871 29.0652 96.0832 29.4246 95.9218 29.7057C95.7603 29.9869 95.4025 30.0834 95.1226 29.9212L60.893 10.0967C60.6131 9.9346 60.517 9.57525 60.6784 9.29409Z" fill="black"/>
<path fill-rule="evenodd" clip-rule="evenodd" d="M74.1013 1.12491C75.378 0.387964 76.8261 0 78.3001 0C79.7741 0 81.2222 0.387964 82.4989 1.12491C82.4993 1.12515 82.4997 1.12538 82.5001 1.12561L109.8 16.7288C111.076 17.4654 112.135 18.5247 112.873 19.8003C113.61 21.0758 113.999 22.5229 114 23.9962V55.2038C113.999 56.6771 113.61 58.1241 112.873 59.3997C112.135 60.6753 111.076 61.7346 109.8 62.4712L109.798 62.4726L82.5001 78.0744C82.4999 78.0745 82.4997 78.0746 82.4994 78.0748C81.2226 78.8119 79.7743 79.2 78.3001 79.2C76.8258 79.2 75.3776 78.8119 74.1008 78.0748C74.1005 78.0746 74.1003 78.0745 74.1001 78.0744L46.8024 62.4726L46.8001 62.4712C45.5244 61.7346 44.4648 60.6753 43.7276 59.3997C42.9905 58.1241 42.6016 56.6771 42.6001 55.2038V23.9962C42.6016 22.5229 42.9905 21.0758 43.7276 19.8003C44.4648 18.5247 45.5244 17.4654 46.8001 16.7288L46.8024 16.7274L74.1001 1.12561C74.1005 1.12538 74.1009 1.12515 74.1013 1.12491ZM78.3001 1.20024C77.0362 1.20024 75.7946 1.53299 74.7001 2.16505L74.6978 2.16638L47.4001 17.7682C47.3997 17.7684 47.3993 17.7687 47.3989 17.7689C46.306 18.4003 45.3982 19.308 44.7666 20.4009C44.1347 21.4942 43.8014 22.7344 43.8001 23.9972V55.2028C43.8014 56.4656 44.1347 57.7058 44.7666 58.7991C45.3982 59.892 46.3059 60.7996 47.3987 61.431C47.3992 61.4313 47.3996 61.4315 47.4001 61.4318L74.7001 77.0349C75.7946 77.667 77.0362 77.9998 78.3001 77.9998C79.564 77.9998 80.8056 77.667 81.9001 77.0349L81.9024 77.0336L109.2 61.4318C109.201 61.4315 109.201 61.4313 109.201 61.431C110.294 60.7996 111.202 59.892 111.834 58.7991C112.465 57.7057 112.799 56.4654 112.8 55.2025V23.9975C112.799 22.7346 112.465 21.4943 111.834 20.4009C111.202 19.308 110.294 18.4003 109.201 17.7689C109.201 17.7687 109.201 17.7684 109.2 17.7682L81.9024 2.16638L81.9001 2.16505C80.8056 1.53299 79.564 1.20024 78.3001 1.20024Z" fill="black"/>
<path fill-rule="evenodd" clip-rule="evenodd" d="M43.88 20.0926C44.0438 19.8125 44.4061 19.7168 44.6892 19.8788L78.0003 38.9375L111.311 19.8788C111.595 19.7168 111.957 19.8125 112.121 20.0926C112.284 20.3726 112.188 20.7309 111.904 20.8929L78.2969 40.1213C78.1134 40.2262 77.8872 40.2262 77.7037 40.1213L44.0961 20.8929C43.813 20.7309 43.7162 20.3726 43.88 20.0926Z" fill="black"/>
<path fill-rule="evenodd" clip-rule="evenodd" d="M77.9999 39C78.3313 39 78.5999 39.2626 78.5999 39.5865V78.0135C78.5999 78.3374 78.3313 78.6 77.9999 78.6C77.6685 78.6 77.3999 78.3374 77.3999 78.0135V39.5865C77.3999 39.2626 77.6685 39 77.9999 39Z" fill="black"/>
</g>
<defs>
<clipPath id="clip0_406480_4300">
<rect width="71.4" height="79.2" fill="white" transform="translate(42.6001)"/>
</clipPath>
</defs>
</svg>
