<svg width="114" height="99" viewBox="0 0 114 99" fill="none" xmlns="http://www.w3.org/2000/svg">
<circle cx="38.4" cy="60.6" r="38.0806" fill="#FF9900" stroke="#FF9900" stroke-width="0.63871"/>
<path fill-rule="evenodd" clip-rule="evenodd" d="M73.0065 30.0193C67.3625 30.0193 62.7872 34.5947 62.7872 40.2387C62.7872 45.8827 67.3625 50.4581 73.0065 50.4581C78.6505 50.4581 83.2259 45.8827 83.2259 40.2387C83.2259 34.5947 78.6505 30.0193 73.0065 30.0193ZM61.5098 40.2387C61.5098 33.8892 66.657 28.7419 73.0065 28.7419C79.356 28.7419 84.5033 33.8892 84.5033 40.2387C84.5033 46.5882 79.356 51.7355 73.0065 51.7355C66.657 51.7355 61.5098 46.5882 61.5098 40.2387Z" fill="black"/>
<path fill-rule="evenodd" clip-rule="evenodd" d="M73.3256 1.28078C71.5706 1.28078 69.8875 1.97797 68.6465 3.21896C67.4055 4.45996 66.7083 6.14311 66.7083 7.89815V8.51506L66.7083 8.51761C66.7031 9.81023 66.3201 11.0731 65.6064 12.1508C64.8927 13.2286 63.8794 14.0741 62.6913 14.5833C62.6116 14.6174 62.5257 14.6351 62.439 14.6351H62.2802C61.1021 15.1259 59.8063 15.2665 58.5486 15.0385C57.2455 14.8022 56.0431 14.181 55.0963 13.2549L55.0913 13.25L54.8736 13.0322C54.259 12.417 53.5289 11.9286 52.7256 11.5956C51.9223 11.2626 51.0612 11.0912 50.1915 11.0912C49.3219 11.0912 48.4608 11.2626 47.6575 11.5956C46.8541 11.9286 46.1243 12.4167 45.5097 13.032L45.5092 13.0325C44.894 13.6471 44.4059 14.3769 44.0729 15.1802C43.7399 15.9835 43.5685 16.8446 43.5685 17.7143C43.5685 18.5839 43.7399 19.445 44.0729 20.2483C44.4059 21.0517 44.894 21.7815 45.5092 22.3961L45.7322 22.619C46.6583 23.5658 47.2795 24.7682 47.5158 26.0713C47.7508 27.3678 47.5941 28.7047 47.0659 29.9115C46.6055 31.1517 45.7844 32.2259 44.7082 32.9956C43.6264 33.7694 42.3369 34.1997 41.0073 34.2308L40.9923 34.231H40.6657C38.9107 34.231 37.2275 34.9282 35.9865 36.1692C34.7455 37.4102 34.0484 39.0933 34.0484 40.8484C34.0484 42.6034 34.7455 44.2866 35.9865 45.5276C37.2275 46.7686 38.9107 47.4657 40.6657 47.4657H41.2852C42.5778 47.4709 43.8407 47.8539 44.9184 48.5676C45.9952 49.2807 46.8402 50.2929 47.3495 51.4796C47.8831 52.6904 48.0421 54.0332 47.8061 55.3351C47.5698 56.6382 46.9486 57.8407 46.0225 58.7874L46.0176 58.7924L45.7998 59.0101C45.1845 59.6247 44.6962 60.3548 44.3632 61.1581C44.0302 61.9614 43.8588 62.8225 43.8588 63.6922C43.8588 64.5618 44.0302 65.4229 44.3632 66.2262C44.6962 67.0296 45.1843 67.7594 45.7996 68.374L45.8001 68.3745C46.4146 68.9897 47.1445 69.4778 47.9478 69.8108C48.7511 70.1438 49.6122 70.3153 50.4818 70.3153C51.3515 70.3153 52.2126 70.1438 53.0159 69.8108C53.8192 69.4778 54.5491 68.9897 55.1636 68.3745L55.3866 68.1515C56.3333 67.2254 57.5358 66.6042 58.8389 66.368C60.1353 66.1329 61.4723 66.2896 62.679 66.8178C63.9192 67.2782 64.9935 68.0993 65.7632 69.1756C66.5369 70.2573 66.9673 71.5468 66.9984 72.8764L66.9986 72.8914V73.218C66.9986 74.973 67.6958 76.6562 68.9368 77.8972C70.1778 79.1382 71.8609 79.8353 73.616 79.8353C75.371 79.8353 77.0541 79.1382 78.2951 77.8972C79.5361 76.6562 80.2333 74.973 80.2333 73.218V72.6011L80.2333 72.5985C80.2385 71.3059 80.6215 70.043 81.3352 68.9653C82.0482 67.8886 83.0603 67.0437 84.2469 66.5343C85.4577 66.0006 86.8006 65.8415 88.1027 66.0776C89.4058 66.3139 90.6082 66.9351 91.555 67.8612L91.56 67.8661L91.7777 68.0839C92.3923 68.6992 93.1224 69.1875 93.9257 69.5205C94.729 69.8535 95.5901 70.0249 96.4597 70.0249C97.3294 70.0249 98.1905 69.8535 98.9938 69.5205C99.7971 69.1875 100.527 68.6994 101.142 68.0842L101.142 68.0836C101.757 67.4691 102.245 66.7393 102.578 65.9359C102.911 65.1326 103.083 64.2715 103.083 63.4019C103.083 62.5322 102.911 61.6711 102.578 60.8678C102.245 60.0645 101.757 59.3346 101.142 58.7201L100.919 58.4971C99.993 57.5504 99.3718 56.3479 99.1355 55.0448C98.8994 53.7427 99.0585 52.3998 99.5922 51.189C100.102 50.0024 100.946 48.9904 102.023 48.2773C103.101 47.5636 104.364 47.1806 105.656 47.1754L105.659 47.1754L105.986 47.1754C107.741 47.1754 109.424 46.4782 110.665 45.2372C111.906 43.9963 112.603 42.3131 112.603 40.5581C112.603 38.803 111.906 37.1199 110.665 35.8789C109.424 34.6379 107.741 33.9407 105.986 33.9407H105.369L105.366 33.9407C104.073 33.9355 102.811 33.5525 101.733 32.8388C100.655 32.1251 99.8096 31.1118 99.3004 29.9237C99.2663 29.844 99.2486 29.7582 99.2486 29.6714V29.5126C98.7578 28.3345 98.6172 27.0387 98.8452 25.781C99.0815 24.4779 99.7027 23.2755 100.629 22.3288L100.634 22.3237L100.851 22.106C101.467 21.4914 101.955 20.7613 102.288 19.958C102.621 19.1547 102.793 18.2936 102.793 17.424C102.793 16.5543 102.621 15.6932 102.288 14.8899C101.955 14.0866 101.467 13.3567 100.852 12.7422L100.851 12.7417C100.237 12.1264 99.5068 11.6383 98.7035 11.3053C97.9002 10.9723 97.0391 10.8009 96.1694 10.8009C95.2998 10.8009 94.4387 10.9723 93.6354 11.3053C92.832 11.6383 92.1022 12.1264 91.4876 12.7417L91.2647 12.9646C90.318 13.8907 89.1155 14.5119 87.8124 14.7482C86.5104 14.9842 85.1677 14.8252 83.9569 14.2916C82.7701 13.7823 81.758 12.9373 81.0449 11.8605C80.3312 10.7828 79.9482 9.51992 79.943 8.2273L79.943 8.22475V7.89815C79.943 6.14311 79.2458 4.45996 78.0048 3.21896C76.7638 1.97797 75.0807 1.28078 73.3256 1.28078ZM67.7408 2.31331C69.222 0.832124 71.2309 0 73.3256 0C75.4204 0 77.4293 0.832124 78.9105 2.31331C80.3917 3.7945 81.2238 5.80343 81.2238 7.89815L81.2238 8.22219C81.2238 8.22259 81.2238 8.22299 81.2238 8.22339C81.2282 9.26581 81.5372 10.2842 82.1128 11.1534C82.6886 12.0228 83.506 12.7049 84.4646 13.1157L84.4709 13.1185C85.4483 13.5498 86.5326 13.6786 87.5839 13.4879C88.6341 13.2975 89.6032 12.7972 90.3666 12.0514C90.3674 12.0506 90.3682 12.0498 90.369 12.049L90.5815 11.8365C90.5814 11.8366 90.5816 11.8364 90.5815 11.8365C91.315 11.1023 92.1862 10.5196 93.1449 10.1222C94.1037 9.72468 95.1315 9.5201 96.1694 9.5201C97.2074 9.5201 98.2351 9.72468 99.194 10.1222C100.153 10.5195 101.023 11.1019 101.757 11.836C102.491 12.5695 103.074 13.4406 103.471 14.3994C103.869 15.3583 104.073 16.386 104.073 17.424C104.073 18.4619 103.869 19.4897 103.471 20.4485C103.074 21.4073 102.491 22.2784 101.757 23.0119L101.544 23.2244C101.544 23.2252 101.543 23.226 101.542 23.2269C100.796 23.9903 100.296 24.9594 100.105 26.0095C99.9148 27.0608 100.044 28.1451 100.475 29.1225C100.511 29.204 100.529 29.2921 100.529 29.3811V29.5361C100.945 30.4442 101.606 31.2187 102.44 31.771C103.309 32.3465 104.328 32.6555 105.37 32.6599H105.986C108.08 32.6599 110.089 33.492 111.57 34.9732C113.052 36.4544 113.884 38.4633 113.884 40.5581C113.884 42.6528 113.052 44.6617 111.57 46.1429C110.089 47.6241 108.08 48.4562 105.986 48.4562L105.662 48.4562C105.661 48.4562 105.661 48.4562 105.66 48.4562C104.618 48.4606 103.599 48.7696 102.73 49.3452C101.861 49.921 101.179 50.7385 100.768 51.697L100.765 51.7033C100.334 52.6807 100.205 53.765 100.396 54.8163C100.586 55.8664 101.086 56.8355 101.832 57.5988C101.833 57.5997 101.834 57.6006 101.835 57.6015L102.047 57.8139C102.047 57.8138 102.047 57.814 102.047 57.8139C102.781 58.5474 103.364 59.4186 103.762 60.3773C104.159 61.3362 104.364 62.3639 104.364 63.4019C104.364 64.4398 104.159 65.4676 103.762 66.4264C103.364 67.3851 102.782 68.2561 102.047 68.9895C101.314 69.7238 100.443 70.3062 99.4843 70.7037C98.5255 71.1011 97.4977 71.3057 96.4597 71.3057C95.4218 71.3057 94.394 71.1011 93.4352 70.7037C92.4765 70.3062 91.6055 69.7238 90.8721 68.9895C90.872 68.9895 90.8721 68.9896 90.8721 68.9895L90.6594 68.7768C90.6585 68.7759 90.6576 68.7751 90.6567 68.7742C89.8934 68.0285 88.9243 67.5283 87.8742 67.3379C86.8229 67.1472 85.7386 67.2759 84.7612 67.7073L84.7549 67.7101C83.7964 68.1209 82.9789 68.803 82.4031 69.6725C81.8275 70.5416 81.5185 71.56 81.5141 72.6024C81.5141 72.6028 81.5141 72.6032 81.5141 72.6036L81.5141 73.218C81.5141 75.3127 80.682 77.3216 79.2008 78.8028C77.7196 80.284 75.7107 81.1161 73.616 81.1161C71.5212 81.1161 69.5123 80.284 68.0311 78.8028C66.5499 77.3216 65.7178 75.3127 65.7178 73.218V72.899C65.6913 71.829 65.3443 70.7914 64.7215 69.9206C64.0973 69.0479 63.225 68.3832 62.218 68.0128C62.2111 68.0103 62.2044 68.0077 62.1977 68.0049C62.1919 68.0026 62.1861 68.0002 62.1804 67.9976C61.203 67.5662 60.1187 67.4376 59.0674 67.6282C58.0173 67.8186 57.0481 68.3189 56.2847 69.0646C56.2839 69.0655 56.2831 69.0663 56.2822 69.0671L56.0698 69.2796C55.3363 70.014 54.4652 70.5965 53.5064 70.994C52.5475 71.3914 51.5198 71.596 50.4818 71.596C49.4439 71.596 48.4161 71.3914 47.4573 70.994C46.4985 70.5965 45.6274 70.014 44.8939 69.2796C44.1598 68.5462 43.5774 67.6753 43.18 66.7167C42.7826 65.7579 42.578 64.7301 42.578 63.6922C42.578 62.6542 42.7826 61.6265 43.18 60.6676C43.5775 59.7089 44.1599 58.838 44.8942 58.1045C44.8941 58.1046 44.8942 58.1044 44.8942 58.1045L45.1069 57.8918C45.1077 57.891 45.1085 57.8901 45.1093 57.8893C45.8551 57.1259 46.3554 56.1568 46.5458 55.1066C46.7365 54.0553 46.6078 52.971 46.1764 51.9936L46.1736 51.9873C45.7628 51.0288 45.0807 50.2113 44.2112 49.6355C43.3421 49.0599 42.3237 48.7509 41.2813 48.7465C41.2809 48.7465 41.2805 48.7465 41.2801 48.7465L40.6657 48.7465C38.571 48.7465 36.5621 47.9144 35.0809 46.4332C33.5997 44.952 32.7676 42.9431 32.7676 40.8484C32.7676 38.7537 33.5997 36.7447 35.0809 35.2635C36.5621 33.7824 38.571 32.9502 40.6657 32.9502H40.9847C42.0548 32.9237 43.0923 32.5767 43.9631 31.9539C44.8358 31.3297 45.5005 30.4574 45.8709 29.4504C45.8756 29.4377 45.8806 29.4252 45.8861 29.4129C46.3175 28.4354 46.4461 27.3511 46.2555 26.2998C46.0651 25.2497 45.5648 24.2805 44.819 23.5171L44.6041 23.3022C43.8698 22.5687 43.2872 21.6976 42.8897 20.7388C42.4923 19.78 42.2877 18.7522 42.2877 17.7143C42.2877 16.6763 42.4923 15.6486 42.8897 14.6897C43.2872 13.7309 43.8698 12.8599 44.6041 12.1263C45.3375 11.3922 46.2084 10.8098 47.167 10.4125C48.1258 10.015 49.1536 9.81041 50.1915 9.81041C51.2295 9.81041 52.2572 10.015 53.2161 10.4125C54.1748 10.8099 55.0458 11.3924 55.7792 12.1266C55.7791 12.1265 55.7793 12.1267 55.7792 12.1266L55.9944 12.3418C56.7578 13.0876 57.7269 13.5878 58.7771 13.7783C59.8284 13.9689 60.9127 13.8402 61.8901 13.4088C61.9716 13.3728 62.0597 13.3543 62.1487 13.3543H62.3037C63.2117 12.9391 63.9863 12.2776 64.5385 11.4437C65.1141 10.5745 65.4231 9.55612 65.4275 8.5137V7.89815C65.4275 5.80343 66.2596 3.7945 67.7408 2.31331Z" fill="black"/>
</svg>
